# xmcd CD database file
#
# Track frame offsets:
#	150
#	12782
#	26110
#	37942
#	50943
#	63361
#	75868
#	82609
#	94862
#	101643
#	113902
#	124534
#	133911
#	149953
#	163330
#
# Disc length: 2285 seconds
#
# Revision: 0
# Processed by: cddbd v1.5.1PL2 Copyright (c) Steve Scherf et al.
# Submitted via: CDex 1.51
#
DISCID=c808eb0f
DTITLE=Oak Ridge Boys - Platinum Series
DYEAR=1900
DGENRE=Country
TTITLE0=You'll Never Walk Alone
TTITLE1=River Of Life
TTITLE2=Time Has Made A Change In Me
TTITLE3=The Old Country Church
TTITLE4=In The Shelter Of His Arms
TTITLE5=Because Of Him
TTITLE6=Victory Is Coming
TTITLE7=On The Sunny Bank
TTITLE8=Live A Little More
TTITLE9=When I Lay My Burdens Down
TTITLE10=My Heavenly Father Watches
TTITLE11=I Know Who Holds Tomorrow
TTITLE12=Farther Along
TTITLE13=Lead Me To Calvary
TTITLE14=Day Of Rejoicing
EXTD=
EXTT0=
EXTT1=
EXTT2=
EXTT3=
EXTT4=
EXTT5=
EXTT6=
EXTT7=
EXTT8=
EXTT9=
EXTT10=
EXTT11=
EXTT12=
EXTT13=
EXTT14=
PLAYORDER=
